<?xml version="1.0" encoding="UTF-8"?>
<svg version="1.1" xmlns="http://www.w3.org/2000/svg" width="341" height="378">
<path d="M0 0 C112.53 0 225.06 0 341 0 C341 124.74 341 249.48 341 378 C228.47 378 115.94 378 0 378 C0 253.26 0 128.52 0 0 Z " fill="#FCFCFC" transform="translate(0,0)"/>
<path d="M0 0 C2.02045442 0.60183749 4.02111039 1.27306096 6 2 C6.33 2.66 6.66 3.32 7 4 C8.97888961 4.72693904 10.97954558 5.39816251 13 6 C13 7.65 13 9.3 13 11 C13.73605469 10.75378906 14.47210938 10.50757812 15.23046875 10.25390625 C18 10 18 10 20.23828125 11.65234375 C20.92277344 12.40644531 21.60726562 13.16054687 22.3125 13.9375 C23.35857422 15.06478516 23.35857422 15.06478516 24.42578125 16.21484375 C24.94527344 16.80394531 25.46476563 17.39304687 26 18 C25.34 19.98 24.68 21.96 24 24 C22.35 24.33 20.7 24.66 19 25 C22.71873717 27.68095005 25.49384176 29.24897363 30 30 C30.99 30.99 30.99 30.99 32 32 C32.66 32.33 33.32 32.66 34 33 C34 33.66 34 34.32 34 35 C34.66 34.67 35.32 34.34 36 34 C36 32.68 36 31.36 36 30 C37.75 27.75 37.75 27.75 40 26 C41.32 26 42.64 26 44 26 C44.33 26.99 44.66 27.98 45 29 C45.86625 29.5775 46.7325 30.155 47.625 30.75 C48.800625 31.86375 48.800625 31.86375 50 33 C49.88231248 36.41293795 49.52982686 38.94034627 48 42 C48.99 42 49.98 42 51 42 C51.42318648 52.17214919 50.30678857 61.07764918 48 71 C47.74863281 72.17304688 47.49726563 73.34609375 47.23828125 74.5546875 C45.91750414 80.60650219 44.33663736 86.26461739 42 92 C41.09664776 94.71005672 40.76031083 97.06080948 40.50610352 99.88525391 C39.56004959 110.21907366 37.83112408 120.40742534 36.0625 130.625 C35.93525543 131.36218262 35.80801086 132.09936523 35.6769104 132.85888672 C34.80270197 137.90921479 33.90683198 142.9554374 33 148 C32.86454773 148.75889526 32.72909546 149.51779053 32.58953857 150.29968262 C32.1879249 152.54178401 31.78047951 154.78274363 31.37109375 157.0234375 C31.24823502 157.71112213 31.12537628 158.39880676 30.99879456 159.10733032 C30.11499656 163.88500344 30.11499656 163.88500344 29 165 C28.72732103 166.3065479 28.50938349 167.62463804 28.31640625 168.9453125 C28.19458984 169.76733154 28.07277344 170.58935059 27.94726562 171.4362793 C27.82029297 172.32355713 27.69332031 173.21083496 27.5625 174.125 C27.42908203 175.03354736 27.29566406 175.94209473 27.15820312 176.87817383 C26.39101651 182.1423897 25.67734112 187.4110696 25 192.6875 C24.20382443 198.82942583 23.16007766 204.90189921 22.03515625 210.98999023 C21.32291074 214.91142868 20.78934859 218.77588575 20.5 222.75 C20.18816298 226.47931624 19.46196704 229.04563956 17 232 C16.34 232 15.68 232 15 232 C15 232.99 15 233.98 15 235 C14.34 235 13.68 235 13 235 C12.8453125 236.1446875 12.8453125 236.1446875 12.6875 237.3125 C11.68509133 241.23100662 9.92191972 242.35216452 6.6875 244.625 C0.46062431 247.81084337 -7.39786054 247.86451347 -14.125 246.25 C-17.59955815 244.73932255 -20.75112159 242.94932705 -24 241 C-24 240.34 -24 239.68 -24 239 C-25.65 238.67 -27.3 238.34 -29 238 C-29 237.34 -29 236.68 -29 236 C-29.66 236 -30.32 236 -31 236 C-31 235.01 -31 234.02 -31 233 C-31.66 233 -32.32 233 -33 233 C-33 232.34 -33 231.68 -33 231 C-33.70125 230.896875 -34.4025 230.79375 -35.125 230.6875 C-38.39137647 229.90640997 -41.0471852 228.57941257 -44 227 C-44 226.34 -44 225.68 -44 225 C-44.66 225 -45.32 225 -46 225 C-46 224.34 -46 223.68 -46 223 C-46.721875 222.731875 -47.44375 222.46375 -48.1875 222.1875 C-50.99766383 221.00098638 -53.48416557 219.72514361 -56 218 C-56 217.34 -56 216.68 -56 216 C-59.50776784 214.39644899 -62.14354879 213.77963136 -66 214 C-67.11344571 216.22689142 -67.19643481 217.71734819 -67.375 220.1875 C-67.7412933 223.8620614 -68.63087896 226.52384411 -70.25 229.86328125 C-71.29037456 232.82726502 -71.56349311 235.759389 -71.9375 238.875 C-72.68640541 244.86624326 -74.11632448 249.7085954 -77 255 C-77.66 255 -78.32 255 -79 255 C-79.33 257.31 -79.66 259.62 -80 262 C-80.66 262 -81.32 262 -82 262 C-82.2475 262.598125 -82.495 263.19625 -82.75 263.8125 C-84.23611853 266.41320743 -85.37949839 267.54416577 -88 269 C-92.57434225 269.95742047 -95.09939508 268.54921101 -98.875 266.125 C-101.2421875 264.5078125 -101.2421875 264.5078125 -103 263 C-103 262.34 -103 261.68 -103 261 C-104.10408203 260.85304688 -104.10408203 260.85304688 -105.23046875 260.703125 C-108.35199228 259.91063666 -109.86318807 258.80975043 -112.3125 256.75 C-115.88165116 253.83848138 -119.48951178 251.35629573 -123.46875 249.04296875 C-125 248 -125 248 -126 246 C-127.88013106 244.87775145 -127.88013106 244.87775145 -130.0625 243.875 C-130.79597656 243.52179688 -131.52945313 243.16859375 -132.28515625 242.8046875 C-132.85105469 242.53914062 -133.41695313 242.27359375 -134 242 C-134 241.34 -134 240.68 -134 240 C-136.65228812 238.92474806 -139.28368454 237.90543849 -142 237 C-142.56203125 236.42507813 -143.1240625 235.85015625 -143.703125 235.2578125 C-147.31005185 231.71222794 -151.60557513 229.23458915 -155.86328125 226.53515625 C-157.6078173 225.40513388 -159.30833265 224.20773266 -161 223 C-161 222.34 -161 221.68 -161 221 C-161.70898438 220.74605469 -162.41796875 220.49210938 -163.1484375 220.23046875 C-169.31560718 217.56929279 -175.42254785 213.59516322 -178.9375 207.8125 C-179.4634375 205.9253125 -179.4634375 205.9253125 -180 204 C-180.48339844 202.50919922 -180.48339844 202.50919922 -180.9765625 200.98828125 C-182.75713079 195.47364348 -184.2797967 189.99268537 -185.4296875 184.31640625 C-186.14091985 181.42763375 -187.13138899 178.67865065 -188.125 175.875 C-189.69951657 171.3147335 -190.43566323 167.7922955 -190 163 C-190.66 163 -191.32 163 -192 163 C-192.48919922 161.35451172 -192.48919922 161.35451172 -192.98828125 159.67578125 C-193.42933363 158.22124682 -193.87075966 156.76682565 -194.3125 155.3125 C-194.52583984 154.59126953 -194.73917969 153.87003906 -194.95898438 153.12695312 C-196.21270654 149.02896576 -197.65713545 145.62744653 -200 142 C-201.15754721 138.00120054 -201.08125251 134.14387789 -201 130 C-201.66 130 -202.32 130 -203 130 C-203.10957031 129.31035156 -203.21914062 128.62070313 -203.33203125 127.91015625 C-204.25795759 122.42234894 -205.46721531 117.32011617 -207.3359375 112.08203125 C-208.29638897 109.0707334 -208.66617568 106.13794857 -209 103 C-208.01 103.33 -207.02 103.66 -206 104 C-206 104.66 -206 105.32 -206 106 C-205.29101562 106.25652344 -204.58203125 106.51304687 -203.8515625 106.77734375 C-200.77383412 108.09697249 -198.16839013 109.71947814 -195.375 111.5625 C-192.52936671 113.43749947 -190.23717611 114.9209413 -187 116 C-187 116.66 -187 117.32 -187 118 C-186.030625 118.268125 -185.06125 118.53625 -184.0625 118.8125 C-183.051875 119.204375 -182.04125 119.59625 -181 120 C-180.67 120.99 -180.34 121.98 -180 123 C-177.49552484 124.21869929 -177.49552484 124.21869929 -175 125 C-175 125.66 -175 126.32 -175 127 C-173.35 127.33 -171.7 127.66 -170 128 C-170 128.66 -170 129.32 -170 130 C-168.865625 130.268125 -167.73125 130.53625 -166.5625 130.8125 C-164.7990625 131.4003125 -164.7990625 131.4003125 -163 132 C-162.67 132.99 -162.34 133.98 -162 135 C-160.35767228 135.72455635 -158.68375165 136.37774395 -157 137 C-150.29561528 140.40876945 -150.29561528 140.40876945 -149 143 C-147.845 143.5775 -146.69 144.155 -145.5 144.75 C-143.57421875 145.7890625 -143.57421875 145.7890625 -142 147 C-141.3125 150.125 -141.3125 150.125 -141 153 C-139.0321085 154.21072349 -139.0321085 154.21072349 -137 155 C-135.54954149 149.10146874 -134.66910171 143.44304898 -134.24609375 137.3828125 C-134 135 -134 135 -133 132 C-132.79087002 129.99980635 -132.58505635 127.99913846 -132.40527344 125.99609375 C-131.19143232 112.77992227 -128.79714014 98.79714014 -119 89 C-115.55834679 89.35299007 -113.93127462 90.04581692 -111 92 C-111 92.66 -111 93.32 -111 94 C-110.34 94 -109.68 94 -109 94 C-109 94.66 -109 95.32 -109 96 C-108.05125 96.0825 -107.1025 96.165 -106.125 96.25 C-104.578125 96.62125 -104.578125 96.62125 -103 97 C-101.875 99 -101.875 99 -101 101 C-99.10820797 101.6814823 -99.10820797 101.6814823 -97 102 C-95.6520257 102.63654342 -94.31403276 103.29605388 -93 104 C-93 104.66 -93 105.32 -93 106 C-92.34 106 -91.68 106 -91 106 C-91 106.66 -91 107.32 -91 108 C-90.4225 108.11472656 -89.845 108.22945313 -89.25 108.34765625 C-86.81444795 109.05379721 -85.11305733 110.04667906 -83 111.4375 C-80.39563118 113.14153038 -77.80732083 114.65273665 -75 116 C-75 116.66 -75 117.32 -75 118 C-74.34 118 -73.68 118 -73 118 C-73 118.66 -73 119.32 -73 120 C-72.17048828 120.12955078 -72.17048828 120.12955078 -71.32421875 120.26171875 C-68.29085444 121.225258 -66.32167779 122.86091727 -63.8125 124.8125 C-59.09414372 128.34492533 -54.50849954 130.93261252 -49 133 C-49 133.66 -49 134.32 -49 135 C-48.34 135 -47.68 135 -47 135 C-47 135.99 -47 136.98 -47 138 C-46.01 137.67 -45.02 137.34 -44 137 C-43.67 136.01 -43.34 135.02 -43 134 C-43.66 134 -44.32 134 -45 134 C-45 132.68 -45 131.36 -45 130 C-44.34 130 -43.68 130 -43 130 C-43.02320313 129.35933594 -43.04640625 128.71867188 -43.0703125 128.05859375 C-43.18440863 122.59012904 -42.79791904 118.16901723 -41 113 C-40.34 113 -39.68 113 -39 113 C-38.8659375 112.01773438 -38.731875 111.03546875 -38.59375 110.0234375 C-37.99957689 105.87050222 -37.26708941 101.74905494 -36.5 97.625 C-36.30470703 96.54025391 -36.30470703 96.54025391 -36.10546875 95.43359375 C-35.11817756 90.11817756 -35.11817756 90.11817756 -34 89 C-33.72423802 87.1458164 -33.50779441 85.28275079 -33.31640625 83.41796875 C-33.19330078 82.25716797 -33.07019531 81.09636719 -32.94335938 79.90039062 C-32.81767578 78.67513672 -32.69199219 77.44988281 -32.5625 76.1875 C-30.29899588 54.21115051 -30.29899588 54.21115051 -27.5625 44.8125 C-25.97528617 39.30534898 -25.00346975 33.75121695 -24.09008789 28.10083008 C-23.35068349 23.61874849 -22.25707571 19.37199824 -21 15 C-20.45553957 11.83154279 -20.00495145 8.66063273 -19.5625 5.4765625 C-19.376875 4.65929687 -19.19125 3.84203125 -19 3 C-18.34 2.67 -17.68 2.34 -17 2 C-14.12642604 3.22279743 -11.68134152 4.29026925 -9.5 6.5625 C-7.31845149 8.65315066 -4.85944851 9.1739371 -2 10 C-2.226875 9.0925 -2.45375 8.185 -2.6875 7.25 C-3 4 -3 4 -1.5625 1.625 C-0.7890625 0.820625 -0.7890625 0.820625 0 0 Z " fill="#2BBAD5" transform="translate(239,92)"/>
<path d="M0 0 C3.44165321 0.35299007 5.06872538 1.04581692 8 3 C8 3.66 8 4.32 8 5 C8.66 5 9.32 5 10 5 C10 5.66 10 6.32 10 7 C10.94875 7.0825 11.8975 7.165 12.875 7.25 C13.90625 7.4975 14.9375 7.745 16 8 C17.125 10 17.125 10 18 12 C19.89179203 12.6814823 19.89179203 12.6814823 22 13 C23.3479743 13.63654342 24.68596724 14.29605388 26 15 C26 15.66 26 16.32 26 17 C26.66 17 27.32 17 28 17 C28 17.66 28 18.32 28 19 C28.5775 19.11472656 29.155 19.22945312 29.75 19.34765625 C32.18555205 20.05379721 33.88694267 21.04667906 36 22.4375 C38.60436882 24.14153038 41.19267917 25.65273665 44 27 C44 27.66 44 28.32 44 29 C44.66 29 45.32 29 46 29 C46 29.66 46 30.32 46 31 C46.55042969 31.08636719 47.10085937 31.17273438 47.66796875 31.26171875 C50.72638474 32.229961 52.76466243 33.87008918 55.3125 35.8125 C58.503083 38.21291184 61.55561079 40.39911038 65.125 42.1875 C68 44 68 44 69.125 46.375 C68.95838427 49.87393043 67.64341582 51.88317688 66 55 C63.02640805 62.84832048 61.00644376 70.76860659 59.4375 79 C59.12063232 80.61805542 59.12063232 80.61805542 58.79736328 82.26879883 C57.33480355 89.87354905 56.10825943 97.49579791 55.02539062 105.1628418 C54.18339155 111.05503102 53.00212468 116.81874099 51.6875 122.625 C50.67858351 127.57786279 50.09219844 132.56846668 49.46875 137.58203125 C48.97927274 141.15113629 48.28024641 144.59761774 47.42578125 148.09375 C46.90679238 150.24887871 46.90679238 150.24887871 46.625 153.5 C45.81317107 158.04624203 44.01378872 161.86939152 42 166 C41.34 166 40.68 166 40 166 C39.67 168.31 39.34 170.62 39 173 C38.34 173 37.68 173 37 173 C36.7525 173.598125 36.505 174.19625 36.25 174.8125 C34.76388147 177.41320743 33.62050161 178.54416577 31 180 C26.42565775 180.95742047 23.90060492 179.54921101 20.125 177.125 C17.7578125 175.5078125 17.7578125 175.5078125 16 174 C16 173.34 16 172.68 16 172 C14.89591797 171.85304688 14.89591797 171.85304688 13.76953125 171.703125 C10.64800772 170.91063666 9.13681193 169.80975043 6.6875 167.75 C3.11834884 164.83848138 -0.48951178 162.35629573 -4.46875 160.04296875 C-6 159 -6 159 -7 157 C-8.88013106 155.87775145 -8.88013106 155.87775145 -11.0625 154.875 C-11.79597656 154.52179688 -12.52945313 154.16859375 -13.28515625 153.8046875 C-13.85105469 153.53914062 -14.41695313 153.27359375 -15 153 C-15 152.34 -15 151.68 -15 151 C-17.65228812 149.92474806 -20.28368454 148.90543849 -23 148 C-23.56203125 147.42507813 -24.1240625 146.85015625 -24.703125 146.2578125 C-28.31005185 142.71222794 -32.60557513 140.23458915 -36.86328125 137.53515625 C-38.6078173 136.40513388 -40.30833265 135.20773266 -42 134 C-42 133.34 -42 132.68 -42 132 C-42.70898438 131.74605469 -43.41796875 131.49210938 -44.1484375 131.23046875 C-50.31560718 128.56929279 -56.42254785 124.59516322 -59.9375 118.8125 C-60.288125 117.554375 -60.63875 116.29625 -61 115 C-61.48339844 113.50919922 -61.48339844 113.50919922 -61.9765625 111.98828125 C-63.75713079 106.47364348 -65.2797967 100.99268537 -66.4296875 95.31640625 C-67.14091985 92.42763375 -68.13138899 89.67865065 -69.125 86.875 C-70.69951657 82.3147335 -71.43566323 78.7922955 -71 74 C-71.66 74 -72.32 74 -73 74 C-73.32613281 72.90300781 -73.65226562 71.80601562 -73.98828125 70.67578125 C-74.42933363 69.22124682 -74.87075966 67.76682565 -75.3125 66.3125 C-75.52583984 65.59126953 -75.73917969 64.87003906 -75.95898438 64.12695312 C-77.21270654 60.02896576 -78.65713545 56.62744653 -81 53 C-82.15754721 49.00120054 -82.08125251 45.14387789 -82 41 C-82.66 41 -83.32 41 -84 41 C-84.10957031 40.31035156 -84.21914062 39.62070313 -84.33203125 38.91015625 C-85.25795759 33.42234894 -86.46721531 28.32011617 -88.3359375 23.08203125 C-89.29638897 20.0707334 -89.66617568 17.13794857 -90 14 C-89.01 14.33 -88.02 14.66 -87 15 C-87 15.66 -87 16.32 -87 17 C-85.93652344 17.38478516 -85.93652344 17.38478516 -84.8515625 17.77734375 C-81.77383412 19.09697249 -79.16839013 20.71947814 -76.375 22.5625 C-73.52936671 24.43749947 -71.23717611 25.9209413 -68 27 C-68 27.66 -68 28.32 -68 29 C-67.030625 29.268125 -66.06125 29.53625 -65.0625 29.8125 C-64.051875 30.204375 -63.04125 30.59625 -62 31 C-61.67 31.99 -61.34 32.98 -61 34 C-58.49552484 35.21869929 -58.49552484 35.21869929 -56 36 C-56 36.66 -56 37.32 -56 38 C-54.35 38.33 -52.7 38.66 -51 39 C-51 39.66 -51 40.32 -51 41 C-49.865625 41.268125 -48.73125 41.53625 -47.5625 41.8125 C-45.7990625 42.4003125 -45.7990625 42.4003125 -44 43 C-43.67 43.99 -43.34 44.98 -43 46 C-41.35767228 46.72455635 -39.68375165 47.37774395 -38 48 C-31.29561528 51.40876945 -31.29561528 51.40876945 -30 54 C-28.845 54.5775 -27.69 55.155 -26.5 55.75 C-24.57421875 56.7890625 -24.57421875 56.7890625 -23 58 C-22.3125 61.125 -22.3125 61.125 -22 64 C-20.0321085 65.21072349 -20.0321085 65.21072349 -18 66 C-16.54954149 60.10146874 -15.66910171 54.44304898 -15.24609375 48.3828125 C-15 46 -15 46 -14 43 C-13.79087002 40.99980635 -13.58505635 38.99913846 -13.40527344 36.99609375 C-12.19143232 23.77992227 -9.79714014 9.79714014 0 0 Z " fill="#2BBAD5" transform="translate(120,181)"/>
<path d="M0 0 C0.99 0.33 1.98 0.66 3 1 C3 1.66 3 2.32 3 3 C3.70898438 3.25652344 4.41796875 3.51304687 5.1484375 3.77734375 C8.22616588 5.09697249 10.83160987 6.71947814 13.625 8.5625 C16.47063329 10.43749947 18.76282389 11.9209413 22 13 C22 13.66 22 14.32 22 15 C22.969375 15.268125 23.93875 15.53625 24.9375 15.8125 C25.948125 16.204375 26.95875 16.59625 28 17 C28.33 17.99 28.66 18.98 29 20 C31.50447516 21.21869929 31.50447516 21.21869929 34 22 C34 22.66 34 23.32 34 24 C35.65 24.33 37.3 24.66 39 25 C39 25.66 39 26.32 39 27 C40.134375 27.268125 41.26875 27.53625 42.4375 27.8125 C43.613125 28.204375 44.78875 28.59625 46 29 C46.495 30.485 46.495 30.485 47 32 C48.64232772 32.72455635 50.31624835 33.37774395 52 34 C58.70438472 37.40876945 58.70438472 37.40876945 60 40 C61.10859375 40.53238281 62.2171875 41.06476563 63.359375 41.61328125 C67.90619856 44.1270384 68.85265294 47.37905899 70.25 52.1875 C70.49322998 52.94909424 70.73645996 53.71068848 70.98706055 54.49536133 C71.46368443 55.99238563 71.93047138 57.49258594 72.38623047 58.99609375 C73.12798141 61.41784862 73.96641387 63.8004744 74.8125 66.1875 C75.83837532 69.4810997 76.56205971 72.58406571 77 76 C77.66 76 78.32 76 79 76 C79.50744423 77.89385437 80.00564574 79.79018666 80.5 81.6875 C80.7784375 82.74324219 81.056875 83.79898438 81.34375 84.88671875 C81.9391715 87.71142672 82.12786492 90.12836708 82 93 C82.66 93 83.32 93 84 93 C84.39832031 94.50240234 84.39832031 94.50240234 84.8046875 96.03515625 C85.16142431 97.37761321 85.51819707 98.72006061 85.875 100.0625 C86.13603516 101.04766602 86.13603516 101.04766602 86.40234375 102.05273438 C88.55077412 110.18440371 88.55077412 110.18440371 91.125 118.1875 C92 121 92 121 92 125 C92.66 125 93.32 125 94 125 C94.508783 126.55966218 95.00663469 128.12289241 95.5 129.6875 C95.7784375 130.55761719 96.056875 131.42773438 96.34375 132.32421875 C96.99850805 134.99391677 97.11831495 137.26396684 97 140 C97.66 140 98.32 140 99 140 C99.28875 141.0725 99.5775 142.145 99.875 143.25 C100.80984528 146.80714805 100.80984528 146.80714805 102.125 149.125 C103.23518586 151.50396971 103.14403872 153.40730309 103 156 C100.01942159 155.39206216 97.88884741 154.46988253 95.36328125 152.78515625 C94.70392578 152.34623047 94.04457031 151.90730469 93.36523438 151.45507812 C92.68783203 150.99552734 92.01042969 150.53597656 91.3125 150.0625 C90.27899414 149.37897461 90.27899414 149.37897461 89.22460938 148.68164062 C84.13014087 145.26028174 84.13014087 145.26028174 83 143 C81.11986894 141.87775145 81.11986894 141.87775145 78.9375 140.875 C78.20402344 140.52179688 77.47054687 140.16859375 76.71484375 139.8046875 C76.14894531 139.53914062 75.58304687 139.27359375 75 139 C75 138.34 75 137.68 75 137 C72.34771188 135.92474806 69.71631546 134.90543849 67 134 C66.43796875 133.42507813 65.8759375 132.85015625 65.296875 132.2578125 C61.68994815 128.71222794 57.39442487 126.23458915 53.13671875 123.53515625 C51.3921827 122.40513388 49.69166735 121.20773266 48 120 C48 119.34 48 118.68 48 118 C47.29101562 117.74605469 46.58203125 117.49210937 45.8515625 117.23046875 C39.68439282 114.56929279 33.57745215 110.59516322 30.0625 104.8125 C29.711875 103.554375 29.36125 102.29625 29 101 C28.51660156 99.50919922 28.51660156 99.50919922 28.0234375 97.98828125 C26.24286921 92.47364348 24.7202033 86.99268537 23.5703125 81.31640625 C22.85908015 78.42763375 21.86861101 75.67865065 20.875 72.875 C19.30048343 68.3147335 18.56433677 64.7922955 19 60 C18.34 60 17.68 60 17 60 C16.51080078 58.35451172 16.51080078 58.35451172 16.01171875 56.67578125 C15.57066637 55.22124682 15.12924034 53.76682565 14.6875 52.3125 C14.47416016 51.59126953 14.26082031 50.87003906 14.04101562 50.12695312 C12.78729346 46.02896576 11.34286455 42.62744653 9 39 C7.84245279 35.00120054 7.91874749 31.14387789 8 27 C7.34 27 6.68 27 6 27 C5.89042969 26.31035156 5.78085937 25.62070313 5.66796875 24.91015625 C4.74204241 19.42234894 3.53278469 14.32011617 1.6640625 9.08203125 C0.70361103 6.0707334 0.33382432 3.13794857 0 0 Z " fill="#0E5B8D" transform="translate(30,195)"/>
<path d="M0 0 C4.13896925 7.22367274 6.60126428 13.51403558 7.57421875 21.7890625 C7.98990174 24.92384614 8.67044451 27.82648573 9.5 30.875 C11.1196502 37.09445677 11.94208777 43.31489069 12.71435547 49.68798828 C13.2965904 54.40060776 13.9310374 59.10627328 14.5625 63.8125 C14.68947266 64.78622559 14.81644531 65.75995117 14.94726562 66.76318359 C15.06908203 67.67277832 15.19089844 68.58237305 15.31640625 69.51953125 C15.42412354 70.33526611 15.53184082 71.15100098 15.64282227 71.99145508 C15.91319253 74.06280794 15.91319253 74.06280794 17 76 C17.15320381 77.39301984 17.27395626 78.78972825 17.375 80.1875 C17.81659937 84.59648417 19.24240376 87.92237672 21 92 C21.81117832 95.64535623 22.43274019 99.3094744 23 103 C21.68 102.34 20.36 101.68 19 101 C19 100.34 19 99.68 19 99 C18.01 99 17.02 99 16 99 C16 98.34 16 97.68 16 97 C14.8553125 96.814375 14.8553125 96.814375 13.6875 96.625 C11 96 11 96 8 94 C8 93.34 8 92.68 8 92 C7.29875 91.896875 6.5975 91.79375 5.875 91.6875 C2.60862353 90.90640997 -0.0471852 89.57941257 -3 88 C-3 87.34 -3 86.68 -3 86 C-3.66 86 -4.32 86 -5 86 C-5 85.34 -5 84.68 -5 84 C-5.721875 83.731875 -6.44375 83.46375 -7.1875 83.1875 C-9.99766383 82.00098638 -12.48416557 80.72514361 -15 79 C-15 78.34 -15 77.68 -15 77 C-15.66 77 -16.32 77 -17 77 C-17.66 76.01 -18.32 75.02 -19 74 C-19.99 73.67 -20.98 73.34 -22 73 C-22.02708567 71.39592672 -22.04643483 69.7917215 -22.0625 68.1875 C-22.07410156 67.29417969 -22.08570313 66.40085937 -22.09765625 65.48046875 C-22 63 -22 63 -21 60 C-20.69513559 56.87513984 -20.49158784 53.74971889 -20.28125 50.6171875 C-20 48 -20 48 -19 47 C-18.67260609 44.33322778 -18.38774247 41.67318006 -18.125 39 C-17.53152831 33.43620295 -16.75939633 28.42775589 -14.72265625 23.1875 C-13.48980898 19.45563799 -13.06043248 15.58315094 -12.52734375 11.69921875 C-12.02485552 9.12722344 -11.29446318 7.26128215 -10 5 C-9.34 5 -8.68 5 -8 5 C-7.87625 4.360625 -7.7525 3.72125 -7.625 3.0625 C-7.41875 2.381875 -7.2125 1.70125 -7 1 C-4.53721199 -0.231394 -2.7204945 -0.07159196 0 0 Z " fill="#0E5B8D" transform="translate(198,231)"/>
<path d="M0 0 C1.13437665 3.40312994 0.6940272 5.52986399 0 9 C-0.98269032 17.84252251 -0.98269032 17.84252251 2.25 25.75 C2.70375 26.27078125 3.1575 26.7915625 3.625 27.328125 C7.80852992 32.41491706 9.33330452 38.59972342 10 45 C10.33 45.33 10.66 45.66 11 46 C11.37514918 48.64656024 11.7061971 51.28179725 12 53.9375 C12.40578678 59.12513306 12.40578678 59.12513306 14 64 C14.31648391 67.3406635 14.51128525 70.68217611 14.71875 74.03125 C14.81288062 76.9264801 14.81288062 76.9264801 16 79 C16.26452469 80.58154306 16.48581318 82.17045051 16.68359375 83.76171875 C16.80669922 84.71626953 16.92980469 85.67082031 17.05664062 86.65429688 C17.30807196 88.65672184 17.55810055 90.6593235 17.80664062 92.66210938 C18.49277803 97.96278748 19.49466863 102.86131862 21 108 C21.47736376 110.801947 21.80975897 113.61325049 22.125 116.4375 C22.21136719 117.16904297 22.29773438 117.90058594 22.38671875 118.65429688 C22.59628393 120.43560094 22.79887868 122.21772281 23 124 C23.66 124 24.32 124 25 124 C25 126.31 25 128.62 25 131 C28.02303295 131.1630807 31.03716706 131.28136405 34.0625 131.375 C34.91005859 131.42527344 35.75761719 131.47554687 36.63085938 131.52734375 C41.3309341 131.63622579 44.23778177 131.31795624 47.91796875 128.25 C53.80433616 122.40930342 57.4359757 115.8345187 60 108 C60.33 108 60.66 108 61 108 C61.3227506 112.62609198 60.84450614 115.28026121 58 119 C57.34 119 56.68 119 56 119 C56 119.99 56 120.98 56 122 C55.34 122 54.68 122 54 122 C53.896875 122.763125 53.79375 123.52625 53.6875 124.3125 C52.68509133 128.23100662 50.92191972 129.35216452 47.6875 131.625 C41.46062431 134.81084337 33.60213946 134.86451347 26.875 133.25 C23.40044185 131.73932255 20.24887841 129.94932705 17 128 C17 127.34 17 126.68 17 126 C15.35 125.67 13.7 125.34 12 125 C12 124.34 12 123.68 12 123 C11.34 123 10.68 123 10 123 C10.33 122.34 10.66 121.68 11 121 C12.65 121.66 14.3 122.32 16 123 C16 123.66 16 124.32 16 125 C16.99 125 17.98 125 19 125 C21.1875 127 21.1875 127 23 129 C22.690625 128.43152344 22.38125 127.86304688 22.0625 127.27734375 C21.00215372 125.00461624 20.47639636 123.01679194 20 120.5625 C19.47606024 118.02531141 18.95424537 115.89234206 17.9375 113.5 C16.80530602 110.48081606 16.57663213 107.6786918 16.34375 104.4765625 C16.03917166 101.83370523 16.03917166 101.83370523 15.03125 98.7109375 C13.94855695 94.81488295 13.409947 91.0068713 13 87 C12.83278041 85.49601027 12.66479661 83.99210533 12.49609375 82.48828125 C12.41343262 81.73756348 12.33077148 80.9868457 12.24560547 80.21337891 C11.25710688 71.30510041 10.06329306 62.63287146 7.7109375 53.96875 C6.9465534 50.7768164 6.52821545 47.63115499 6.125 44.375 C5.36156122 38.90588255 3.73553174 34.71505749 1.0234375 29.92578125 C0 28 0 28 0 26 C-3.48809191 26.77030122 -3.48809191 26.77030122 -7 28 C-7.33 28.99 -7.66 29.98 -8 31 C-8.66 31 -9.32 31 -10 31 C-10.16435547 31.87398437 -10.16435547 31.87398437 -10.33203125 32.765625 C-11.24637733 37.49346325 -12.27803427 42.15414332 -13.5 46.8125 C-15.31118901 53.91089732 -16.3516453 61.08399409 -17.30859375 68.33984375 C-17.91701061 72.91701061 -17.91701061 72.91701061 -19 74 C-19.1896297 75.74579722 -19.32510367 77.49753476 -19.4375 79.25 C-19.93294752 85.89858607 -20.90791609 92.42629102 -22 99 C-21.0409375 99.185625 -21.0409375 99.185625 -20.0625 99.375 C-19.0415625 99.684375 -19.0415625 99.684375 -18 100 C-17.67 100.66 -17.34 101.32 -17 102 C-20.96 101.505 -20.96 101.505 -25 101 C-26.43450027 103.86900055 -26.37911083 106.73472913 -26.62109375 109.90625 C-27 112 -27 112 -29 114 C-28.49370284 105.67535989 -27.30242382 97.71283541 -25.5625 89.5625 C-23.55339911 79.94206773 -23.55339911 79.94206773 -21.9375 70.25 C-16.84590517 35.26885776 -16.84590517 35.26885776 -10 25 C-9.83286431 22.37468476 -9.83286431 22.37468476 -10 20 C-9.34 20 -8.68 20 -8 20 C-8 20.66 -8 21.32 -8 22 C-7.34 22 -6.68 22 -6 22 C-6 22.99 -6 23.98 -6 25 C-5.01 24.67 -4.02 24.34 -3 24 C-2.67 23.01 -2.34 22.02 -2 21 C-2.66 21 -3.32 21 -4 21 C-4 19.68 -4 18.36 -4 17 C-3.34 17 -2.68 17 -2 17 C-2.02320313 16.35933594 -2.04640625 15.71867188 -2.0703125 15.05859375 C-2.18440863 9.59012904 -1.79791904 5.16901723 0 0 Z " fill="#B4CDD3" transform="translate(198,205)"/>
<path d="M0 0 C2.02045442 0.60183749 4.02111039 1.27306096 6 2 C6.33 2.66 6.66 3.32 7 4 C8.97888961 4.72693904 10.97954558 5.39816251 13 6 C13 7.65 13 9.3 13 11 C13.73605469 10.75378906 14.47210938 10.50757812 15.23046875 10.25390625 C18 10 18 10 20.23828125 11.65234375 C20.92277344 12.40644531 21.60726563 13.16054687 22.3125 13.9375 C23.00988281 14.68902344 23.70726562 15.44054687 24.42578125 16.21484375 C24.94527344 16.80394531 25.46476562 17.39304687 26 18 C25.34 19.98 24.68 21.96 24 24 C22.35 24.33 20.7 24.66 19 25 C19.33 25.66 19.66 26.32 20 27 C18.8553125 26.5359375 18.8553125 26.5359375 17.6875 26.0625 C15.81210323 25.32106407 13.91315348 24.63771783 12 24 C12 23.34 12 22.68 12 22 C10.35 21.34 8.7 20.68 7 20 C7 19.34 7 18.68 7 18 C5.35 17.67 3.7 17.34 2 17 C2 16.34 2 15.68 2 15 C1.2575 14.7525 0.515 14.505 -0.25 14.25 C-3.20124062 12.90852699 -4.84814974 11.39094474 -7 9 C-4.525 9.495 -4.525 9.495 -2 10 C-2.226875 9.0925 -2.45375 8.185 -2.6875 7.25 C-3 4 -3 4 -1.5625 1.625 C-0.7890625 0.820625 -0.7890625 0.820625 0 0 Z " fill="#EAF1F2" transform="translate(239,92)"/>
<path d="M0 0 C0.33 0.99 0.66 1.98 1 3 C1.86625 3.5775 2.7325 4.155 3.625 4.75 C4.40875 5.4925 5.1925 6.235 6 7 C5.88231248 10.41293795 5.52982686 12.94034627 4 16 C4.99 16 5.98 16 7 16 C7.42301711 26.16807786 6.31741806 35.08312092 4 45 C3.71382813 46.26585937 3.42765625 47.53171875 3.1328125 48.8359375 C2.43623305 51.894253 1.72557741 54.94845814 1 58 C0.67 58 0.34 58 0 58 C0.29503553 49.80004699 0.57832658 42.19132194 3.3046875 34.3828125 C4.36476588 30.74995963 4.56157673 27.11200416 4.7890625 23.34765625 C5 21 5 21 6 18 C4.7625 17.67 3.525 17.34 2.25 17 C-3.16688341 15.22004463 -7.47673969 12.20921211 -12.10546875 8.9375 C-14.9887363 6.91532284 -14.9887363 6.91532284 -18.30078125 5.375 C-21 4 -21 4 -22 2 C-20.72125 2.28875 -19.4425 2.5775 -18.125 2.875 C-17.40570313 3.03742188 -16.68640625 3.19984375 -15.9453125 3.3671875 C-14 4 -14 4 -12 6 C-11.34 6.33 -10.68 6.66 -10 7 C-10 7.66 -10 8.32 -10 9 C-9.34 8.67 -8.68 8.34 -8 8 C-8 6.68 -8 5.36 -8 4 C-5.25317294 0.46836521 -4.64014858 0 0 0 Z " fill="#C4D9DC" transform="translate(283,118)"/>
<path d="M0 0 C2 2 2 2 2.08203125 4.06640625 C1.62761387 8.27470634 1.07989081 12.09870359 -0.4375 16.0625 C-2.39159509 21.33379066 -2.80743657 26.76628728 -3.35327148 32.32446289 C-3.91056528 37.91056528 -3.91056528 37.91056528 -5 39 C-5.1896297 40.74579722 -5.32510367 42.49753476 -5.4375 44.25 C-5.93294752 50.89858607 -6.90791609 57.42629102 -8 64 C-7.0409375 64.185625 -7.0409375 64.185625 -6.0625 64.375 C-5.0415625 64.684375 -5.0415625 64.684375 -4 65 C-3.67 65.66 -3.34 66.32 -3 67 C-6.96 66.505 -6.96 66.505 -11 66 C-12.43450027 68.86900055 -12.37911083 71.73472913 -12.62109375 74.90625 C-13 77 -13 77 -15 79 C-14.49370284 70.67535989 -13.30242382 62.71283541 -11.5625 54.5625 C-9.55339911 44.94206773 -9.55339911 44.94206773 -7.9375 35.25 C-7.11347827 29.53626442 -6.11171093 23.86351099 -5.0625 18.1875 C-4.90450928 17.30288086 -4.74651855 16.41826172 -4.58374023 15.50683594 C-3.56029193 10.05598417 -2.09443849 5.13763971 0 0 Z " fill="#B1CED4" transform="translate(184,240)"/>
<path d="M0 0 C0.33 0 0.66 0 1 0 C0.96519531 1.71896484 0.96519531 1.71896484 0.9296875 3.47265625 C0.91091521 5.0025976 0.89271659 6.53254606 0.875 8.0625 C0.85824219 8.81466797 0.84148437 9.56683594 0.82421875 10.34179688 C0.76634957 17.02568683 2.16853114 22.60256344 5.125 28.625 C6.63595472 31.89873522 7.47346356 34.33065744 7 38 C7.66 38 8.32 38 9 38 C9.15855469 38.77601563 9.31710938 39.55203125 9.48046875 40.3515625 C10.80358376 46.4773657 12.38879592 52.26549715 14.625 58.125 C16.57566658 63.36376623 17.61874485 68.02019303 17.859375 73.59765625 C18.00821205 76.14028923 18.45090875 78.51580493 19 81 C20.32 81 21.64 81 23 81 C24.32286246 85.96073422 24.08893197 90.91111512 24 96 C24.66 96 25.32 96 26 96 C26.33 98.64 26.66 101.28 27 104 C26.34 103.67 25.68 103.34 25 103 C25 101.02 25 99.04 25 97 C24.34 97 23.68 97 23 97 C22.86722656 96.36191406 22.73445313 95.72382813 22.59765625 95.06640625 C22.42105469 94.24011719 22.24445313 93.41382813 22.0625 92.5625 C21.88847656 91.73878906 21.71445313 90.91507812 21.53515625 90.06640625 C21.19247006 88.02338796 21.19247006 88.02338796 20 87 C19.95936168 85.33382885 19.957279 83.66611905 20 82 C19.34 82 18.68 82 18 82 C13.08162042 65.70376899 13.08162042 65.70376899 11.46484375 57.8203125 C11.16309159 55.99303657 11.16309159 55.99303657 10 55 C9.95936168 53.33382885 9.957279 51.66611905 10 50 C9.34 50 8.68 50 8 50 C4.55580866 38.47835991 4.55580866 38.47835991 5 33 C4.34 33 3.68 33 3 33 C2.75765625 32.10539062 2.5153125 31.21078125 2.265625 30.2890625 C0.4219294 23.63757605 -1.54854699 17.21069745 -4.36328125 10.890625 C-4.57339844 10.26671875 -4.78351563 9.6428125 -5 9 C-4.67 8.34 -4.34 7.68 -4 7 C-3.34 7.66 -2.68 8.32 -2 9 C-1.34 6.03 -0.68 3.06 0 0 Z " fill="#84B6C6" transform="translate(104,238)"/>
<path d="M0 0 C3.5730254 2.65991891 3.85260787 6.10708365 4.5 10.25 C4.74494926 11.68769546 4.99107313 13.12519122 5.23828125 14.5625 C5.36154785 15.29597656 5.48481445 16.02945312 5.61181641 16.78515625 C6.4398283 21.50951093 7.46706194 26.19641911 8.44921875 30.890625 C9 34 9 34 9 38 C9.66 38 10.32 38 11 38 C11 40.31 11 42.62 11 45 C14.02303295 45.1630807 17.03716706 45.28136405 20.0625 45.375 C20.91005859 45.42527344 21.75761719 45.47554688 22.63085938 45.52734375 C27.3309341 45.63622579 30.23778177 45.31795624 33.91796875 42.25 C39.80433616 36.40930342 43.4359757 29.8345187 46 22 C46.33 22 46.66 22 47 22 C47.3227506 26.62609198 46.84450614 29.28026121 44 33 C43.34 33 42.68 33 42 33 C42 33.99 42 34.98 42 36 C41.34 36 40.68 36 40 36 C39.896875 36.763125 39.79375 37.52625 39.6875 38.3125 C38.68509133 42.23100662 36.92191972 43.35216452 33.6875 45.625 C27.46062431 48.81084337 19.60213946 48.86451347 12.875 47.25 C9.40044185 45.73932255 6.24887841 43.94932705 3 42 C3 41.34 3 40.68 3 40 C1.35 39.67 -0.3 39.34 -2 39 C-2 38.34 -2 37.68 -2 37 C-2.66 37 -3.32 37 -4 37 C-3.67 36.34 -3.34 35.68 -3 35 C-1.35 35.66 0.3 36.32 2 37 C2 37.66 2 38.32 2 39 C2.99 39 3.98 39 5 39 C7.1875 41 7.1875 41 9 43 C8.690625 42.43152344 8.38125 41.86304688 8.0625 41.27734375 C7.00215372 39.00461624 6.47639636 37.01679194 6 34.5625 C5.47606024 32.02531141 4.95424537 29.89234206 3.9375 27.5 C2.78127345 24.41672919 2.58146605 21.5226078 2.28515625 18.2578125 C2.03379049 15.75812145 2.03379049 15.75812145 0.9375 12.5 C-0.20392742 8.23867097 -0.17874635 4.37928565 0 0 Z " fill="#A1CAD6" transform="translate(212,291)"/>
<path d="M0 0 C3 0 3 0 4.82421875 1.64453125 C5.43910156 2.35996094 6.05398437 3.07539062 6.6875 3.8125 C7.31011719 4.52019531 7.93273437 5.22789063 8.57421875 5.95703125 C10 8 10 8 10 11 C9.34 11 8.68 11 8 11 C10.00725141 14.56782302 10.00725141 14.56782302 12.75 17.5625 C14 19 14 19 13.9375 21.0625 C13 23 13 23 11.1875 24.375 C9 25 9 25 7 24.4375 C4.36457881 22.54329102 2.74702341 20.74532249 1 18 C1.0309375 16.515 1.0309375 16.515 1.0625 15 C1.31493447 11.74253278 1.31493447 11.74253278 -1.5 9.125 C-2.325 8.42375 -3.15 7.7225 -4 7 C-2.68 4.69 -1.36 2.38 0 0 Z " fill="#46C2D9" transform="translate(244,48)"/>
<path d="M0 0 C1.73828125 1.26953125 1.73828125 1.26953125 3.3125 2.8125 C3.84488281 3.31394531 4.37726563 3.81539062 4.92578125 4.33203125 C6 6 6 6 5.73046875 8.07421875 C5 10 5 10 4 12 C2 12.33333333 0 12.66666667 -2 13 C-2.33 13.66 -2.66 14.32 -3 15 C-4.9375 14.625 -4.9375 14.625 -7 14 C-7.33 13.34 -7.66 12.68 -8 12 C-8.825 11.731875 -9.65 11.46375 -10.5 11.1875 C-11.325 10.795625 -12.15 10.40375 -13 10 C-13.8125 7.375 -13.8125 7.375 -14 5 C-13.34 5 -12.68 5 -12 5 C-11.79375 4.38125 -11.5875 3.7625 -11.375 3.125 C-8.71798369 -0.98129793 -4.38452775 -1.56651088 0 0 Z " fill="#35BDD6" transform="translate(284,55)"/>
<path d="M0 0 C3.82622743 1.5588334 6.25147379 3.95433582 9 7 C9.33 7.99 9.66 8.98 10 10 C8.5625 12.6875 8.5625 12.6875 7 15 C3.13066838 14.42676569 0.84777943 12.61046448 -2 10 C-2 9.34 -2 8.68 -2 8 C-2.66 8 -3.32 8 -4 8 C-3.50168276 4.31245243 -2.89932357 2.39509338 0 0 Z " fill="#4AC4DB" transform="translate(274,30)"/>
<path d="M0 0 C0.33 0 0.66 0 1 0 C1.05449838 1.72880982 1.09301688 3.45812712 1.125 5.1875 C1.14820313 6.15042969 1.17140625 7.11335937 1.1953125 8.10546875 C0.9892979 11.15860514 0.18311416 13.20191252 -1 16 C-1.40718405 18.36515141 -1.40718405 18.36515141 -1.5625 20.6875 C-1.90140845 24.8028169 -1.90140845 24.8028169 -3 27 C-3.36858567 29.83350235 -3.70145167 32.65912604 -4 35.5 C-4.86486486 43.72972973 -4.86486486 43.72972973 -6 46 C-6.52896278 49.46715098 -6.9618641 52.94245591 -7.40234375 56.421875 C-7.96537846 59.79272333 -8.82599985 62.7972883 -10 66 C-10.97545018 62.90254088 -10.97311099 60.81056834 -10.29296875 57.6484375 C-10.11942871 56.80603516 -9.94588867 55.96363281 -9.76708984 55.09570312 C-9.5758252 54.19787109 -9.38456055 53.30003906 -9.1875 52.375 C-7.48529504 43.97299773 -6.29376333 35.65249244 -5.43359375 27.12890625 C-3.77912929 10.77912929 -3.77912929 10.77912929 -2 9 C-1.60851239 7.48834346 -1.26027543 5.96530368 -0.9375 4.4375 C-0.76089844 3.61121094 -0.58429688 2.78492188 -0.40234375 1.93359375 C-0.26957031 1.29550781 -0.13679688 0.65742188 0 0 Z " fill="#B6DAE1" transform="translate(270,247)"/>
<path d="M0 0 C1.65 0.33 3.3 0.66 5 1 C5.33 1.99 5.66 2.98 6 4 C6.680625 4.45375 7.36125 4.9075 8.0625 5.375 C10 7 10 7 10.4375 9.5 C9.93915901 12.34766278 9.22984785 13.23470379 7 15 C4.06120516 13.64763423 1.70767089 12.10057341 -0.75 10 C-1.36359375 9.484375 -1.9771875 8.96875 -2.609375 8.4375 C-4 7 -4 7 -4 5 C-3.34 5 -2.68 5 -2 5 C-1.34 3.35 -0.68 1.7 0 0 Z " fill="#48C3DA" transform="translate(245,26)"/>
<path d="M0 0 C1.16180608 3.92759816 0.75984959 6.97279717 0 11 C-0.33 11.33 -0.66 11.66 -1 12 C-1.1896297 13.74579722 -1.32510367 15.49753476 -1.4375 17.25 C-1.93294752 23.89858607 -2.90791609 30.42629102 -4 37 C-3.0409375 37.185625 -3.0409375 37.185625 -2.0625 37.375 C-1.381875 37.58125 -0.70125 37.7875 0 38 C0.33 38.66 0.66 39.32 1 40 C-2.96 39.505 -2.96 39.505 -7 39 C-8.43450027 41.86900055 -8.37911083 44.73472913 -8.62109375 47.90625 C-9 50 -9 50 -11 52 C-10.44123514 41.47980635 -9.20916312 30.74849468 -5 21 C-4.67 21 -4.34 21 -4 21 C-3.93941406 20.28972656 -3.87882813 19.57945312 -3.81640625 18.84765625 C-3.73261719 17.92855469 -3.64882812 17.00945312 -3.5625 16.0625 C-3.48128906 15.14597656 -3.40007812 14.22945313 -3.31640625 13.28515625 C-3 11 -3 11 -2 10 C-1.6068352 8.32115762 -1.25914548 6.63149955 -0.9375 4.9375 C-0.76089844 4.01839844 -0.58429688 3.09929687 -0.40234375 2.15234375 C-0.26957031 1.44207031 -0.13679687 0.73179687 0 0 Z " fill="#91B8C7" transform="translate(180,267)"/>
<path d="M0 0 C1.32 0 2.64 0 4 0 C4.33 0.99 4.66 1.98 5 3 C6.62332967 4.38576923 8.28724465 5.72641268 10 7 C9.75 9.375 9.75 9.375 9 12 C7.02 12.99 7.02 12.99 5 14 C2.36 11.69 -0.28 9.38 -3 7 C-1.125 2.25 -1.125 2.25 0 0 Z " fill="#3EC0D8" transform="translate(279,118)"/>
<path d="M0 0 C3.51617697 0.65114388 6.17608443 1.78666077 9 4 C10 6.9375 10 6.9375 10 10 C8.5625 12.375 8.5625 12.375 7 14 C3.40094092 13.44449305 2.00090201 12.25112752 -0.25 9.4375 C-0.77078125 8.79683594 -1.2915625 8.15617187 -1.828125 7.49609375 C-2.21484375 7.00238281 -2.6015625 6.50867188 -3 6 C-2 4 -1 2 0 0 Z " fill="#3DBFD7" transform="translate(288,106)"/>
<path d="M0 0 C1.68816933 1.64488294 3.35353315 3.31337542 5 5 C5.99 5.66 6.98 6.32 8 7 C7.38722388 9.96175123 6.74627478 11.38058783 5 14 C3.68 14 2.36 14 1 14 C-0.73473712 12.05874656 -2.4045651 10.05727132 -4 8 C-4.66 7.67 -5.32 7.34 -6 7 C-5.37162381 3.35541809 -4.14650034 0 0 0 Z " fill="#3DC0D8" transform="translate(233,76)"/>
<path d="M0 0 C3.5730254 2.65991891 3.85260787 6.10708365 4.5 10.25 C4.74494926 11.68769546 4.99107313 13.12519122 5.23828125 14.5625 C5.36154785 15.29597656 5.48481445 16.02945312 5.61181641 16.78515625 C6.4398283 21.50951093 7.46706194 26.19641911 8.44921875 30.890625 C9 34 9 34 9 38 C9.66 38 10.32 38 11 38 C11 39.98 11 41.96 11 44 C7.35727798 40.23585391 6.35998625 37.10948356 5.43359375 32.125 C5.05087027 29.88907111 5.05087027 29.88907111 3.9375 27.5 C2.78127345 24.41672919 2.58146605 21.5226078 2.28515625 18.2578125 C2.03379049 15.75812145 2.03379049 15.75812145 0.9375 12.5 C-0.20392742 8.23867097 -0.17874635 4.37928565 0 0 Z " fill="#A0C6D0" transform="translate(212,291)"/>
<path d="M0 0 C5.66197809 1.31673909 7.74584061 3.40589263 11 8 C11 8.66 11 9.32 11 10 C9.06562643 11.8652888 7.87390851 13 5.125 13 C1.94461591 11.50334866 -0.37181645 9.32952633 -3 7 C-2.38722388 4.03824877 -1.74627478 2.61941217 0 0 Z " fill="#3DBFD8" transform="translate(239,92)"/>
<path d="M0 0 C0.78026253 2.34078758 1.04443939 3.78533516 0.5390625 6.2265625 C-0.08270701 9.42552156 -0.16892769 12.42991681 -0.1875 15.6875 C-0.20876953 17.39486328 -0.20876953 17.39486328 -0.23046875 19.13671875 C-0.30071071 22.13135255 -0.30071071 22.13135255 2 24 C2 24.99 2 25.98 2 27 C0.88625 26.979375 -0.2275 26.95875 -1.375 26.9375 C-4.83215921 26.73619282 -4.83215921 26.73619282 -7 28 C-7.33 28.99 -7.66 29.98 -8 31 C-8.66 31 -9.32 31 -10 31 C-10.12375 31.61875 -10.2475 32.2375 -10.375 32.875 C-11 35 -11 35 -13 37 C-12.88541307 35.56163249 -12.75790884 34.12429034 -12.625 32.6875 C-12.55539063 31.88699219 -12.48578125 31.08648437 -12.4140625 30.26171875 C-12 28 -12 28 -10 25 C-9.83286431 22.37468476 -9.83286431 22.37468476 -10 20 C-9.34 20 -8.68 20 -8 20 C-8 20.66 -8 21.32 -8 22 C-7.34 22 -6.68 22 -6 22 C-6 22.99 -6 23.98 -6 25 C-5.01 24.67 -4.02 24.34 -3 24 C-2.67 23.01 -2.34 22.02 -2 21 C-2.66 21 -3.32 21 -4 21 C-4 19.68 -4 18.36 -4 17 C-3.34 17 -2.68 17 -2 17 C-2.02320313 16.35933594 -2.04640625 15.71867188 -2.0703125 15.05859375 C-2.18440863 9.59012904 -1.79791904 5.16901723 0 0 Z " fill="#BCDAE2" transform="translate(198,205)"/>
<path d="M0 0 C3.16852034 0.10925932 4.24545738 1.22208049 6.625 3.375 C9 6 9 6 11 9 C9.25 11.0625 9.25 11.0625 7 13 C4.15265785 13 2.68653264 11.80764503 0.25 10.3125 C-2 8 -2 8 -2.4375 4.875 C-2 2 -2 2 0 0 Z " fill="#3CBED7" transform="translate(268,101)"/>
<path d="M0 0 C3.7792847 0.40857132 6.24667691 1.34865184 9 4 C9 4.99 9 5.98 9 7 C9.66 7.33 10.32 7.66 11 8 C9.515 10.475 9.515 10.475 8 13 C3.62823262 12.4955653 0.96434685 10.10222345 -2 7 C-1.90196078 1.90196078 -1.90196078 1.90196078 0 0 Z " fill="#3ABFD8" transform="translate(297,66)"/>
<path d="M0 0 C5.40049736 0.31767632 7.52337065 3.19996327 11 7 C9.60840337 10.47899158 8.36748512 11.48052501 5 13 C3.84775972 12.07038578 2.70340824 11.1309875 1.5625 10.1875 C0.92441406 9.66542969 0.28632813 9.14335938 -0.37109375 8.60546875 C-2 7 -2 7 -3 4 C-1.5625 1.8125 -1.5625 1.8125 0 0 Z " fill="#36BDD6" transform="translate(286,81)"/>
<path d="M0 0 C5.00684759 0.28610558 7.57579441 2.57579441 11 6 C11 10 11 10 9.6875 11.75 C8 13 8 13 5 13 C5 12.34 5 11.68 5 11 C4.34 11 3.68 11 3 11 C3 10.34 3 9.68 3 9 C2.34 9 1.68 9 1 9 C1 8.34 1 7.68 1 7 C0.01 6.67 -0.98 6.34 -2 6 C-1.125 1.125 -1.125 1.125 0 0 Z " fill="#38BED7" transform="translate(268,80)"/>
<path d="M0 0 C4.29238623 1.65091778 6.8793915 4.73754566 10 8 C9.3125 9.9375 9.3125 9.9375 8 12 C5.375 12.75 5.375 12.75 3 13 C2.67 12.01 2.34 11.02 2 10 C1.34 9.690625 0.68 9.38125 0 9.0625 C-2 8 -2 8 -2.9375 6.125 C-3.0225942 3.23179718 -1.88243538 2.10832763 0 0 Z " fill="#38BED7" transform="translate(255,102)"/>
<path d="M0 0 C3.01234107 0.33470456 4.34555877 1.26108885 6.8125 3.125 C9 6 9 6 8.8125 9.8125 C8.544375 10.864375 8.27625 11.91625 8 13 C4 13 4 13 1.375 10.75 C-0.57665881 8.49018453 -1.8867446 6.73253598 -3 4 C-2.01 2.68 -1.02 1.36 0 0 Z " fill="#33BCD6" transform="translate(256,80)"/>
<path d="M0 0 C0.99 0 1.98 0 3 0 C3 0.66 3 1.32 3 2 C3.598125 2.268125 4.19625 2.53625 4.8125 2.8125 C7.04593283 4.02493496 8.49938199 4.94652273 10 7 C9.9375 9.0625 9.9375 9.0625 9 11 C7.1875 12.375 7.1875 12.375 5 13 C2.46537583 12.23193207 1.08772023 11.0789482 -0.875 9.3125 C-2 7 -2 7 -1.1875 3.25 C-0.795625 2.1775 -0.40375 1.105 0 0 Z " fill="#33BCD6" transform="translate(248,60)"/>
<path d="M0 0 C0.33 0 0.66 0 1 0 C0.96519531 1.71896484 0.96519531 1.71896484 0.9296875 3.47265625 C0.91091521 5.0025976 0.89271659 6.53254606 0.875 8.0625 C0.85824219 8.81466797 0.84148437 9.56683594 0.82421875 10.34179688 C0.77463321 16.06892696 1.40035855 20.97845504 4.125 26.125 C5.23518586 28.50396971 5.14403872 30.40730309 5 33 C4.34 33 3.68 33 3 33 C2.75765625 32.10539062 2.5153125 31.21078125 2.265625 30.2890625 C0.4219294 23.63757605 -1.54854699 17.21069745 -4.36328125 10.890625 C-4.57339844 10.26671875 -4.78351563 9.6428125 -5 9 C-4.67 8.34 -4.34 7.68 -4 7 C-3.34 7.66 -2.68 8.32 -2 9 C-1.34 6.03 -0.68 3.06 0 0 Z " fill="#9AC1CD" transform="translate(104,238)"/>
<path d="M0 0 C5.49711119 0.81438684 9.40860022 5.0095558 13 9 C13 9.66 13 10.32 13 11 C13.66 11 14.32 11 15 11 C14.67 11.66 14.34 12.32 14 13 C11.625 12.8125 11.625 12.8125 9 12 C7.9375 9.6875 7.9375 9.6875 7 7 C5.16641665 4.66545339 5.16641665 4.66545339 3 3 C2.01 3 1.02 3 0 3 C-0.66 4.65 -1.32 6.3 -2 8 C-1.01 8.78375 -0.02 9.5675 1 10.375 C1.99 11.24125 2.98 12.1075 4 13 C4 13.66 4 14.32 4 15 C5.32 15.33 6.64 15.66 8 16 C4.86162389 16.3077917 3.40656372 16.27813784 0.76171875 14.46875 C0.07722656 13.8190625 -0.60726562 13.169375 -1.3125 12.5 C-2.00988281 11.8503125 -2.70726562 11.200625 -3.42578125 10.53125 C-4.20501953 9.77328125 -4.20501953 9.77328125 -5 9 C-4.21616433 5.13857796 -2.57189568 2.98671756 0 0 Z " fill="#B9DEE5" transform="translate(256,78)"/>
<path d="M0 0 C1.33332095 2.6666419 0.67102033 4.16680303 0 7 C-0.66 7 -1.32 7 -2 7 C-2.03738281 8.17175781 -2.07476562 9.34351563 -2.11328125 10.55078125 C-2.42756064 18.56746785 -2.86379356 26.01549135 -5.30078125 33.71875 C-6.24510107 36.79965934 -6.64480932 39.80328388 -7 43 C-7.33 43 -7.66 43 -8 43 C-8.125 35.375 -8.125 35.375 -7 32 C-6.79079006 29.99904152 -6.58481557 27.99762511 -6.40405273 25.99389648 C-4.43306914 4.43306914 -4.43306914 4.43306914 0 0 Z " fill="#8DD7E5" transform="translate(113,192)"/>
<path d="M0 0 C1.01058283 3.23537338 0.99200982 5.82985606 0.625 9.1875 C0.53476563 10.06792969 0.44453125 10.94835937 0.3515625 11.85546875 C0 14 0 14 -1 15 C-1.51796792 17.53952273 -1.99386074 20.07236794 -2.4375 22.625 C-3.34914122 27.86331937 -4.45654137 32.90859101 -6 38 C-6.33 38 -6.66 38 -7 38 C-7.02688151 36.35425434 -7.04634123 34.70838587 -7.0625 33.0625 C-7.07410156 32.14597656 -7.08570313 31.22945312 -7.09765625 30.28515625 C-7 28 -7 28 -6 27 C-5.76924918 25.65252916 -5.58846937 24.29622435 -5.4375 22.9375 C-5.293125 21.638125 -5.14875 20.33875 -5 19 C-4.34 19 -3.68 19 -3 19 C-3 16.36 -3 13.72 -3 11 C-2.34 11 -1.68 11 -1 11 C-1.01160156 10.37351563 -1.02320313 9.74703125 -1.03515625 9.1015625 C-1.04417969 8.28429687 -1.05320313 7.46703125 -1.0625 6.625 C-1.07410156 5.81289062 -1.08570313 5.00078125 -1.09765625 4.1640625 C-1 2 -1 2 0 0 Z " fill="#7FD3E2" transform="translate(206,167)"/>
<path d="M0 0 C5.875 4.75 5.875 4.75 7 7 C8.98 6.67 10.96 6.34 13 6 C12.34 7.32 11.68 8.64 11 10 C9.68 10 8.36 10 7 10 C7.33 10.66 7.66 11.32 8 12 C7.236875 11.690625 6.47375 11.38125 5.6875 11.0625 C3.81210323 10.32106407 1.91315348 9.63771783 0 9 C0 8.34 0 7.68 0 7 C-2.475 6.01 -2.475 6.01 -5 5 C-5 4.67 -5 4.34 -5 4 C-3.35 4 -1.7 4 0 4 C0 2.68 0 1.36 0 0 Z " fill="#BBE1E9" transform="translate(251,107)"/>
<path d="M0 0 C0.66 0 1.32 0 2 0 C3.19287411 3.87684087 4 6.91621923 4 11 C5.32 11 6.64 11 8 11 C9.32286246 15.96073422 9.08893197 20.91111512 9 26 C9.66 26 10.32 26 11 26 C11.33 28.64 11.66 31.28 12 34 C11.34 33.67 10.68 33.34 10 33 C10 31.02 10 29.04 10 27 C9.34 27 8.68 27 8 27 C7.80083984 26.04287109 7.80083984 26.04287109 7.59765625 25.06640625 C7.42105469 24.24011719 7.24445313 23.41382813 7.0625 22.5625 C6.88847656 21.73878906 6.71445313 20.91507812 6.53515625 20.06640625 C6.19247006 18.02338796 6.19247006 18.02338796 5 17 C4.95936168 15.33382885 4.957279 13.66611905 5 12 C4.34 12 3.68 12 3 12 C2.49663233 10.37604003 1.99741024 8.75079459 1.5 7.125 C1.2215625 6.22007812 0.943125 5.31515625 0.65625 4.3828125 C0 2 0 2 0 0 Z " fill="#5396B3" transform="translate(119,308)"/>
<path d="M0 0 C0.66 0 1.32 0 2 0 C1.86722656 0.78503906 1.73445312 1.57007813 1.59765625 2.37890625 C0.43103917 9.27007223 0.43103917 9.27007223 -0.5625 16.1875 C-1 19 -1 19 -2 20 C-2.23427778 22.01594582 -2.41336124 24.038474 -2.5625 26.0625 C-2.64628906 27.16722656 -2.73007813 28.27195312 -2.81640625 29.41015625 C-2.87699219 30.26480469 -2.93757812 31.11945313 -3 32 C-4.485 32.495 -4.485 32.495 -6 33 C-5.74253792 30.16488812 -5.46943783 27.33269821 -5.1875 24.5 C-5.11724609 23.70851563 -5.04699219 22.91703125 -4.97460938 22.1015625 C-4.41053287 16.59617583 -3.0612899 12.13129614 -1 7 C-0.52291347 4.65936421 -0.24790035 2.37984339 0 0 Z " fill="#B5CDD3" transform="translate(180,258)"/>
<path d="M0 0 C0.33 0 0.66 0 1 0 C1.3227506 4.62609198 0.84450614 7.28026121 -2 11 C-2.66 11 -3.32 11 -4 11 C-4 11.99 -4 12.98 -4 14 C-4.66 14 -5.32 14 -6 14 C-6.1546875 15.1446875 -6.1546875 15.1446875 -6.3125 16.3125 C-7.33028929 20.29113085 -9.17412761 21.40706598 -12.4375 23.75 C-15 25 -15 25 -17.3125 24.6875 C-17.869375 24.460625 -18.42625 24.23375 -19 24 C-17.9275 23.443125 -16.855 22.88625 -15.75 22.3125 C-12.2974802 20.3267822 -10.31648605 18.28791569 -8 15 C-7.25556641 14.08347656 -7.25556641 14.08347656 -6.49609375 13.1484375 C-3.05200292 8.84954822 -1.12525115 5.40120553 0 0 Z " fill="#BEDFE6" transform="translate(258,313)"/>
<path d="M0 0 C0.33 0 0.66 0 1 0 C1.16459961 4.69108895 1.04369149 8.32363793 -0.4296875 12.81640625 C-1.52141671 16.99638314 -1.90766749 21.31642031 -2.4375 25.59765625 C-2.98411659 28.90392745 -3.85207708 31.857561 -5 35 C-6.01125762 31.82150253 -5.94832941 29.62255225 -5.29296875 26.3671875 C-5.11830078 25.47773438 -4.94363281 24.58828125 -4.76367188 23.671875 C-4.4784668 22.28742188 -4.4784668 22.28742188 -4.1875 20.875 C-4.00896484 19.97523438 -3.83042969 19.07546875 -3.64648438 18.1484375 C-3.10565333 15.43061506 -2.55326377 12.7153156 -2 10 C-1.62030545 8.10692877 -1.24135953 6.21370719 -0.86328125 4.3203125 C-0.69739502 3.49031738 -0.53150879 2.66032227 -0.3605957 1.80517578 C-0.24159912 1.20946777 -0.12260254 0.61375977 0 0 Z " fill="#D0E1E5" transform="translate(265,278)"/>
<path d="M0 0 C0.78375 0.185625 1.5675 0.37125 2.375 0.5625 C4.97089775 1.25962266 4.97089775 1.25962266 7 0 C7.86625 0.7734375 7.86625 0.7734375 8.75 1.5625 C10.85856105 3.24398896 10.85856105 3.24398896 13.125 2.75 C15.04498297 2.0121108 15.04498297 2.0121108 17 1 C15.25 5.875 15.25 5.875 13 7 C12.67 7.66 12.34 8.32 12 9 C11.01 8.67 10.02 8.34 9 8 C9 7.34 9 6.68 9 6 C8.2575 5.7525 7.515 5.505 6.75 5.25 C3.79875938 3.90852699 2.15185026 2.39094474 0 0 Z " fill="#BFE2E8" transform="translate(232,101)"/>
<path d="M0 0 C3.19366994 2.77710429 3.8178768 5.05013398 4.20532227 9.19824219 C4.24197998 9.97329102 4.2786377 10.74833984 4.31640625 11.546875 C4.35830078 12.39121094 4.40019531 13.23554688 4.44335938 14.10546875 C4.48267578 14.97816406 4.52199219 15.85085938 4.5625 16.75 C4.60568359 17.63816406 4.64886719 18.52632813 4.69335938 19.44140625 C4.79913615 21.62745963 4.90122546 23.81362089 5 26 C4.34 25.67 3.68 25.34 3 25 C2.65625 23.1796875 2.65625 23.1796875 2.5 20.875 C2.23631334 17.83541199 1.83455748 15.45501286 0.9375 12.5 C-0.20392742 8.23867097 -0.17874635 4.37928565 0 0 Z " fill="#92B0BF" transform="translate(212,291)"/>
<path d="M0 0 C1.27875 0.28875 2.5575 0.5775 3.875 0.875 C4.95394531 1.11863281 4.95394531 1.11863281 6.0546875 1.3671875 C8 2 8 2 10 4 C10.66 4.33 11.32 4.66 12 5 C12 5.66 12 6.32 12 7 C12.66 6.67 13.32 6.34 14 6 C14 4.68 14 3.36 14 2 C16.56326494 3.28163247 16.82416059 4.42785129 18 7 C18.37125 7.7425 18.7425 8.485 19.125 9.25 C19.558125 10.11625 19.558125 10.11625 20 11 C15.99920724 10.39733975 12.97624107 9.1315928 9.4375 7.1875 C8.50808594 6.68605469 7.57867187 6.18460937 6.62109375 5.66796875 C4.02545415 4.0161981 2.07907387 2.25518366 0 0 Z " fill="#B6DDE4" transform="translate(261,120)"/>
<path d="M0 0 C2.63016109 7.83371719 -0.76185601 17.67684755 -3.9140625 24.96484375 C-5.24171715 27.45300228 -6.782757 29.2578805 -9 31 C-8.67 29.02 -8.34 27.04 -8 25 C-7.34 25 -6.68 25 -6 25 C-5.87625 24.443125 -5.7525 23.88625 -5.625 23.3125 C-5 21 -5 21 -4.02734375 18.8046875 C-2.8073703 15.47411358 -2.3785022 12.32939993 -1.9375 8.8125 C-1.09957924 2.19915849 -1.09957924 2.19915849 0 0 Z " fill="#B8DEE5" transform="translate(168,322)"/>
<path d="M0 0 C0.66 0 1.32 0 2 0 C2.06058594 0.78246094 2.12117187 1.56492187 2.18359375 2.37109375 C2.26738281 3.38300781 2.35117188 4.39492188 2.4375 5.4375 C2.55931641 6.95150391 2.55931641 6.95150391 2.68359375 8.49609375 C2.73211468 10.93640779 2.73211468 10.93640779 4 12 C4.15620555 13.41327947 4.25056173 14.8335459 4.31640625 16.25390625 C4.35830078 17.10791016 4.40019531 17.96191406 4.44335938 18.84179688 C4.50233398 20.18854492 4.50233398 20.18854492 4.5625 21.5625 C4.60568359 22.46419922 4.64886719 23.36589844 4.69335938 24.29492188 C4.79978142 26.52978485 4.90179988 28.76476308 5 31 C3.32311762 27.83409304 2.6892639 25.46397481 2.4375 21.875 C2.21950935 18.30201227 2.21950935 18.30201227 1 15 C0.76827173 12.45384991 0.58105471 9.92603775 0.4375 7.375 C0.39431641 6.66859375 0.35113281 5.9621875 0.30664062 5.234375 C0.20055249 3.48981463 0.09977111 1.74493303 0 0 Z " fill="#51C0D5" transform="translate(211,267)"/>
<path d="M0 0 C2.17842487 7.32147305 -0.02700194 16.77856919 -2 24 C-2.66 24.33 -3.32 24.66 -4 25 C-3.66015674 16.21095009 -3.10928299 8.31097656 0 0 Z " fill="#C5D9DD" transform="translate(282,177)"/>
<path d="M0 0 C2.58977277 0.46245942 3.96503859 0.97245465 6.0625 2.625 C6.701875 3.07875 7.34125 3.5325 8 4 C8.99 3.67 9.98 3.34 11 3 C11.2475 3.9075 11.495 4.815 11.75 5.75 C13.03981342 9.10351489 14.31971042 10.67708236 17 13 C14.36 12.67 11.72 12.34 9 12 C8.91878906 11.41605469 8.83757812 10.83210938 8.75390625 10.23046875 C7.77068495 7.32156015 6.3028938 6.23568614 3.9375 4.3125 C2.611687 3.22435471 1.29536315 2.12422177 0 1 C0 0.67 0 0.34 0 0 Z " fill="#B2DCE4" transform="translate(255,101)"/>
<path d="M0 0 C3.41879431 1.65826134 6.25172555 3.3280665 9 6 C9.3125 8.75 9.3125 8.75 9 11 C8.34 11 7.68 11 7 11 C6.34 12.65 5.68 14.3 5 16 C2.69 15.67 0.38 15.34 -2 15 C-1.67 14.34 -1.34 13.68 -1 13 C0.98 13 2.96 13 5 13 C6.04385696 10.34595936 6.04385696 10.34595936 6 7 C4.29275002 4.3682085 2.23621992 2.19084734 0 0 Z " fill="#B8E2EA" transform="translate(283,54)"/>
<path d="M0 0 C0.76648373 2.29945119 1.0587898 3.73348625 0.53125 6.125 C-0.15924395 9.86179081 -0.10645375 13.52909652 -0.0625 17.3125 C-0.05798828 18.05306641 -0.05347656 18.79363281 -0.04882812 19.55664062 C-0.03712175 21.37112899 -0.01918898 23.18557534 0 25 C-0.99 24.67 -1.98 24.34 -3 24 C-2.67 23.01 -2.34 22.02 -2 21 C-2.66 21 -3.32 21 -4 21 C-4 19.68 -4 18.36 -4 17 C-3.34 17 -2.68 17 -2 17 C-2.02320313 16.35933594 -2.04640625 15.71867188 -2.0703125 15.05859375 C-2.18440863 9.59012904 -1.79791904 5.16901723 0 0 Z " fill="#CBE7EC" transform="translate(198,205)"/>
<path d="M0 0 C5.8245325 5.8245325 4.60535776 19.21100834 5 27 C3.05662363 24.08493545 2.72325333 23.17028308 2.4375 19.875 C2.43313101 16.22536034 2.43313101 16.22536034 1 15 C0.76346477 12.47403741 0.57826308 9.96892793 0.4375 7.4375 C0.39431641 6.72658203 0.35113281 6.01566406 0.30664062 5.28320312 C0.20028223 3.52238088 0.09961154 1.7612168 0 0 Z " fill="#4D81A4" transform="translate(205,256)"/>
<path d="M0 0 C0.66 0 1.32 0 2 0 C2 1.98 2 3.96 2 6 C2.66 6 3.32 6 4 6 C4.12117188 6.72445312 4.24234375 7.44890625 4.3671875 8.1953125 C5.10165283 12.43261247 5.82517461 16.47552382 7.1875 20.5625 C7.455625 21.366875 7.72375 22.17125 8 23 C7.67 23.66 7.34 24.32 7 25 C3.22217111 19.25112995 2.86639946 14.81362773 3 8 C2.34 8 1.68 8 1 8 C0.67 5.36 0.34 2.72 0 0 Z " fill="#86A9BF" transform="translate(35,214)"/>
<path d="M0 0 C0.99 0.33 1.98 0.66 3 1 C3 1.66 3 2.32 3 3 C5.475 3.99 5.475 3.99 8 5 C6.68 5.99 5.36 6.98 4 8 C4.33 10.64 4.66 13.28 5 16 C3 15 3 15 2.1484375 12.63671875 C1.89320312 11.66347656 1.63796875 10.69023437 1.375 9.6875 C1.11460938 8.72199219 0.85421875 7.75648438 0.5859375 6.76171875 C0 4 0 4 0 0 Z " fill="#3B79A2" transform="translate(30,195)"/>
<path d="M0 0 C1.09651823 3.41139003 0.94215473 6.20655581 0.5625 9.75 C0.46066406 10.73484375 0.35882813 11.7196875 0.25390625 12.734375 C0.12822266 13.85585937 0.12822266 13.85585937 0 15 C-0.66 15 -1.32 15 -2 15 C-2 17.64 -2 20.28 -2 23 C-2.66 23 -3.32 23 -4 23 C-3.59378936 14.97383806 -2.40152224 7.67278805 0 0 Z " fill="#77D1E2" transform="translate(213,131)"/>
<path d="M0 0 C1.175625 0.5259375 1.175625 0.5259375 2.375 1.0625 C3.674375 1.5265625 3.674375 1.5265625 5 2 C5.66 1.67 6.32 1.34 7 1 C6.67 2.32 6.34 3.64 6 5 C6.99 5 7.98 5 9 5 C9.125 8.375 9.125 8.375 9 12 C8.34 12.66 7.68 13.32 7 14 C7.33 11.69 7.66 9.38 8 7 C7.04287109 6.70996094 7.04287109 6.70996094 6.06640625 6.4140625 C4.82697266 6.02347656 4.82697266 6.02347656 3.5625 5.625 C2.73878906 5.36976563 1.91507812 5.11453125 1.06640625 4.8515625 C-1 4 -1 4 -2 2 C-1.34 2 -0.68 2 0 2 C0 1.34 0 0.68 0 0 Z " fill="#A1D8E2" transform="translate(281,129)"/>
<path d="M0 0 C0.99 0.33 1.98 0.66 3 1 C2.64838839 9.41442956 1.90830856 17.06159801 -1 25 C-2.30102931 20.67941758 -1.72449924 17.41944536 -1 13 C-0.67 12.67 -0.34 12.34 0 12 C0.25996373 10.54998009 0.45919978 9.08877907 0.625 7.625 C0.72039062 6.83351562 0.81578125 6.04203125 0.9140625 5.2265625 C1.13776452 2.82565842 1.13776452 2.82565842 0 0 Z " fill="#53C2D7" transform="translate(286,135)"/>
<path d="M0 0 C0.33 0.99 0.66 1.98 1 3 C1.66 3 2.32 3 3 3 C3.33 7.62 3.66 12.24 4 17 C3.34 17 2.68 17 2 17 C-0.01167675 11.21642935 -0.22084624 6.09781001 0 0 Z " fill="#C3CFD3" transform="translate(207,256)"/>
<path d="M0 0 C0.66 0 1.32 0 2 0 C3.03789581 1.64333504 4.03567924 3.31243867 5 5 C5.66 5.66 6.32 6.32 7 7 C6.53846154 13.46153846 6.53846154 13.46153846 4 16 C3.01 16 2.02 16 1 16 C1 15.34 1 14.68 1 14 C3 12.375 3 12.375 5 11 C4.58493854 8.09456975 4.06074946 7.06074946 1.9375 4.9375 C1.298125 4.298125 0.65875 3.65875 0 3 C0 2.01 0 1.02 0 0 Z " fill="#AFDFE8" transform="translate(252,59)"/>
<path d="M0 0 C3.45854519 3.45854519 4 7.21904213 4 12 C4.66 12 5.32 12 6 12 C6.33 14.97 6.66 17.94 7 21 C6.34 21 5.68 21 5 21 C5 19.02 5 17.04 5 15 C4.34 15 3.68 15 3 15 C2.49564306 13.0636296 1.99666126 11.12585854 1.5 9.1875 C1.2215625 8.10855469 0.943125 7.02960938 0.65625 5.91796875 C0 3 0 3 0 0 Z " fill="#B6C8D3" transform="translate(43,243)"/>
<path d="M0 0 C0.33 0 0.66 0 1 0 C1.09038099 5.15171623 0.84681133 9.91913204 0 15 C-2.78388975 13.29374499 -3.85384206 12.52373261 -4.75 9.3125 C-4.8325 8.549375 -4.915 7.78625 -5 7 C-3.515 7.99 -3.515 7.99 -2 9 C-1.34 6.03 -0.68 3.06 0 0 Z " fill="#B1D5DE" transform="translate(104,238)"/>
<path d="M0 0 C0.66 0 1.32 0 2 0 C1.58955515 6.57791873 1.13391403 12.74051886 -1 19 C-1.33 19 -1.66 19 -2 19 C-2.02688151 17.35425434 -2.04634123 15.70838587 -2.0625 14.0625 C-2.07410156 13.14597656 -2.08570313 12.22945312 -2.09765625 11.28515625 C-2 9 -2 9 -1 8 C-0.76924918 6.65252916 -0.58846937 5.29622435 -0.4375 3.9375 C-0.293125 2.638125 -0.14875 1.33875 0 0 Z " fill="#C1E5EC" transform="translate(201,186)"/>
<path d="M0 0 C0.99 0.495 0.99 0.495 2 1 C2 2.65 2 4.3 2 6 C2.66 6 3.32 6 4 6 C4 7.98 4 9.96 4 12 C3.34 12 2.68 12 2 12 C0.00214565 7.8794254 -0.17835515 4.54805635 0 0 Z " fill="#7DBFCE" transform="translate(109,270)"/>
<path d="M0 0 C2 2 2 2 2.1875 5.75 C2.1047681 9.23746762 1.68505673 12.57471633 1 16 C-1.09350689 12.5980513 -1.17942163 9.94727588 -1 6 C-0.34 6 0.32 6 1 6 C0.67 4.02 0.34 2.04 0 0 Z " fill="#A7C4CD" transform="translate(210,267)"/>
<path d="M0 0 C1.32 0.33 2.64 0.66 4 1 C4.33 3.97 4.66 6.94 5 10 C4.34 10 3.68 10 3 10 C2.01 6.7 1.02 3.4 0 0 Z " fill="#71B0C3" transform="translate(116,298)"/>
<path d="M0 0 C0.99 0.495 0.99 0.495 2 1 C2.40729228 3.32156597 2.74438677 5.6568787 3 8 C3.66 8 4.32 8 5 8 C5 9.98 5 11.96 5 14 C0.65757571 9.65757571 0.2555331 5.86448454 0 0 Z " fill="#7ABCCD" transform="translate(218,321)"/>
<path d="M0 0 C2 2 2 2 2.046875 4.27734375 C1.94890625 5.15519531 1.8509375 6.03304687 1.75 6.9375 C1.66234375 7.81277344 1.5746875 8.68804687 1.484375 9.58984375 C1 12 1 12 -1 15 C-1.02685412 12.68756208 -1.04632841 10.3750373 -1.0625 8.0625 C-1.07410156 6.77472656 -1.08570313 5.48695313 -1.09765625 4.16015625 C-1 1 -1 1 0 0 Z " fill="#9BB7C5" transform="translate(184,240)"/>
<path d="M0 0 C0.33 0.66 0.66 1.32 1 2 C1.66 2 2.32 2 3 2 C3 2.66 3 3.32 3 4 C2.34 4 1.68 4 1 4 C0.87625 4.61875 0.7525 5.2375 0.625 5.875 C0 8 0 8 -2 10 C-1.85950482 8.52031676 -1.71245174 7.04125484 -1.5625 5.5625 C-1.48128906 4.73878906 -1.40007812 3.91507813 -1.31640625 3.06640625 C-1 1 -1 1 0 0 Z " fill="#BBD2D9" transform="translate(187,232)"/>
<path d="M0 0 C2.56326494 1.28163247 2.82416059 2.42785129 4 5 C4.37125 5.7425 4.7425 6.485 5.125 7.25 C5.41375 7.8275 5.7025 8.405 6 9 C4.35 8.67 2.7 8.34 1 8 C0.67 5.36 0.34 2.72 0 0 Z " fill="#CCE5E9" transform="translate(275,122)"/>
<path d="M0 0 C1.57674249 3.15348498 0.67891171 5.60544147 0 9 C-1.5625 12.4375 -1.5625 12.4375 -3 15 C-4.43088528 12.13822943 -3.59991697 10.06624227 -3 7 C-2.34 7 -1.68 7 -1 7 C-1.020625 6.030625 -1.04125 5.06125 -1.0625 4.0625 C-1 1 -1 1 0 0 Z " fill="#64C8DB" transform="translate(166,329)"/>
<path d="M0 0 C3.91841827 1.30613942 6.32640809 2.83129848 9 6 C9 6.66 9 7.32 9 8 C8.34 8 7.68 8 7 8 C7 8.66 7 9.32 7 10 C6.34 9.67 5.68 9.34 5 9 C4.87625 8.236875 4.7525 7.47375 4.625 6.6875 C3.86156285 3.40472026 2.50142651 2.1786618 0 0 Z " fill="#BFE4EB" transform="translate(283,120)"/>
<path d="M0 0 C6.75 2.625 6.75 2.625 9 6 C8.401875 5.690625 7.80375 5.38125 7.1875 5.0625 C4.91043228 3.89790296 4.91043228 3.89790296 2 3 C1.67 3.66 1.34 4.32 1 5 C0.34 5 -0.32 5 -1 5 C-0.67 3.35 -0.34 1.7 0 0 Z " fill="#70D0E1" transform="translate(221,94)"/>
<path d="M0 0 C1.23367942 2.46735884 1 4.26809601 1 7 C1.33 7.66 1.66 8.32 2 9 C0.68 8.67 -0.64 8.34 -2 8 C-2.33 6.35 -2.66 4.7 -3 3 C-2.34 3 -1.68 3 -1 3 C-0.67 2.01 -0.34 1.02 0 0 Z " fill="#8DD8E6" transform="translate(273,57)"/>
<path d="M0 0 C1.5625 1.1875 1.5625 1.1875 3 3 C2.6875 5.6875 2.6875 5.6875 2 8 C-0.22189824 5.77810176 -0.92598892 3.91517292 -2 1 C-1.34 0.67 -0.68 0.34 0 0 Z " fill="#ADC5D0" transform="translate(200,231)"/>
<path d="M0 0 C2.475 0.99 2.475 0.99 5 2 C5 2.66 5 3.32 5 4 C5.66 4 6.32 4 7 4 C6.67 4.66 6.34 5.32 6 6 C4.35 5.67 2.7 5.34 1 5 C0.67 3.35 0.34 1.7 0 0 Z " fill="#83D4E4" transform="translate(264,85)"/>
<path d="M0 0 C0.66 0 1.32 0 2 0 C0.99806563 3.79303725 0.18975773 6.71536341 -2 10 C-2.17942163 6.05272412 -2.09350689 3.4019487 0 0 Z " fill="#467DA2" transform="translate(188,236)"/>
<path d="M0 0 C0.66 0 1.32 0 2 0 C2 2.31 2 4.62 2 7 C0.68 6.67 -0.64 6.34 -2 6 C-1.34 5.67 -0.68 5.34 0 5 C0 3.35 0 1.7 0 0 Z " fill="#69AAC2" transform="translate(133,346)"/>
<path d="M0 0 C2 1 2 1 3.1875 3.8125 C3.96421451 6.85961076 4.10096399 8.13749363 3 11 C0.43383368 7.15075052 0.44902324 4.5650696 0 0 Z " fill="#39759D" transform="translate(215,316)"/>
</svg>
